<svg id="visual" viewBox="0 0 960 540" width="960" height="540" xmlns="http://www.w3.org/2000/svg" xmlns:xlink="http://www.w3.org/1999/xlink" version="1.1"><path d="M0 71L20 67.5C40 64 80 57 120 51.7C160 46.3 200 42.7 240 43.5C280 44.3 320 49.7 360 53.2C400 56.7 440 58.3 480 58.3C520 58.3 560 56.7 600 56.7C640 56.7 680 58.3 720 61C760 63.7 800 67.3 840 62.8C880 58.3 920 45.7 940 39.3L960 33L960 0L940 0C920 0 880 0 840 0C800 0 760 0 720 0C680 0 640 0 600 0C560 0 520 0 480 0C440 0 400 0 360 0C320 0 280 0 240 0C200 0 160 0 120 0C80 0 40 0 20 0L0 0Z" fill="#e5e9f0"></path><path d="M0 87L20 85.3C40 83.7 80 80.3 120 75C160 69.7 200 62.3 240 63.2C280 64 320 73 360 76.7C400 80.3 440 78.7 480 77.8C520 77 560 77 600 77C640 77 680 77 720 79.7C760 82.3 800 87.7 840 85.8C880 84 920 75 940 70.5L960 66L960 31L940 37.3C920 43.7 880 56.3 840 60.8C800 65.3 760 61.7 720 59C680 56.3 640 54.7 600 54.7C560 54.7 520 56.3 480 56.3C440 56.3 400 54.7 360 51.2C320 47.7 280 42.3 240 41.5C200 40.7 160 44.3 120 49.7C80 55 40 62 20 65.5L0 69Z" fill="#dee3ed"></path><path d="M0 141L20 135.7C40 130.3 80 119.7 120 115.2C160 110.7 200 112.3 240 116C280 119.7 320 125.3 360 123.7C400 122 440 113 480 112C520 111 560 118 600 124.2C640 130.3 680 135.7 720 134.8C760 134 800 127 840 120.8C880 114.7 920 109.3 940 106.7L960 104L960 64L940 68.5C920 73 880 82 840 83.8C800 85.7 760 80.3 720 77.7C680 75 640 75 600 75C560 75 520 75 480 75.8C440 76.7 400 78.3 360 74.7C320 71 280 62 240 61.2C200 60.3 160 67.7 120 73C80 78.3 40 81.7 20 83.3L0 85Z" fill="#d6dde9"></path><path d="M0 271L20 261.2C40 251.3 80 231.7 120 233.5C160 235.3 200 258.7 240 257.7C280 256.7 320 231.3 360 214.2C400 197 440 188 480 198.8C520 209.7 560 240.3 600 261C640 281.7 680 292.3 720 286C760 279.7 800 256.3 840 237.5C880 218.7 920 204.3 940 197.2L960 190L960 102L940 104.7C920 107.3 880 112.7 840 118.8C800 125 760 132 720 132.8C680 133.7 640 128.3 600 122.2C560 116 520 109 480 110C440 111 400 120 360 121.7C320 123.3 280 117.7 240 114C200 110.3 160 108.7 120 113.2C80 117.7 40 128.3 20 133.7L0 139Z" fill="#cfd8e6"></path><path d="M0 347L20 338C40 329 80 311 120 308.2C160 305.3 200 317.7 240 313.2C280 308.7 320 287.3 360 274.8C400 262.3 440 258.7 480 272.2C520 285.7 560 316.3 600 333.3C640 350.3 680 353.7 720 346.3C760 339 800 321 840 307.5C880 294 920 285 940 280.5L960 276L960 188L940 195.2C920 202.3 880 216.7 840 235.5C800 254.3 760 277.7 720 284C680 290.3 640 279.7 600 259C560 238.3 520 207.7 480 196.8C440 186 400 195 360 212.2C320 229.3 280 254.7 240 255.7C200 256.7 160 233.3 120 231.5C80 229.7 40 249.3 20 259.2L0 269Z" fill="#c8d2e3"></path><path d="M0 395L20 386C40 377 80 359 120 355.5C160 352 200 363 240 358.5C280 354 320 334 360 317.7C400 301.3 440 288.7 480 297.7C520 306.7 560 337.3 600 356.3C640 375.3 680 382.7 720 380.8C760 379 800 368 840 357.2C880 346.3 920 335.7 940 330.3L960 325L960 274L940 278.5C920 283 880 292 840 305.5C800 319 760 337 720 344.3C680 351.7 640 348.3 600 331.3C560 314.3 520 283.7 480 270.2C440 256.7 400 260.3 360 272.8C320 285.3 280 306.7 240 311.2C200 315.7 160 303.3 120 306.2C80 309 40 327 20 336L0 345Z" fill="#c0ccdf"></path><path d="M0 433L20 423.2C40 413.3 80 393.7 120 388.3C160 383 200 392 240 388.3C280 384.7 320 368.3 360 355.7C400 343 440 334 480 343C520 352 560 379 600 394.3C640 409.7 680 413.3 720 408.8C760 404.3 800 391.7 840 380.8C880 370 920 361 940 356.5L960 352L960 323L940 328.3C920 333.7 880 344.3 840 355.2C800 366 760 377 720 378.8C680 380.7 640 373.3 600 354.3C560 335.3 520 304.7 480 295.7C440 286.7 400 299.3 360 315.7C320 332 280 352 240 356.5C200 361 160 350 120 353.5C80 357 40 375 20 384L0 393Z" fill="#b9c6dc"></path><path d="M0 449L20 439.2C40 429.3 80 409.7 120 405.2C160 400.7 200 411.3 240 410.3C280 409.3 320 396.7 360 385C400 373.3 440 362.7 480 370.8C520 379 560 406 600 422.2C640 438.3 680 443.7 720 438.3C760 433 800 417 840 406.2C880 395.3 920 389.7 940 386.8L960 384L960 350L940 354.5C920 359 880 368 840 378.8C800 389.7 760 402.3 720 406.8C680 411.3 640 407.7 600 392.3C560 377 520 350 480 341C440 332 400 341 360 353.7C320 366.3 280 382.7 240 386.3C200 390 160 381 120 386.3C80 391.7 40 411.3 20 421.2L0 431Z" fill="#b2c1d9"></path><path d="M0 482L20 473C40 464 80 446 120 438.7C160 431.3 200 434.7 240 430.2C280 425.7 320 413.3 360 404.3C400 395.3 440 389.7 480 401.3C520 413 560 442 600 455.5C640 469 680 467 720 462.5C760 458 800 451 840 442C880 433 920 422 940 416.5L960 411L960 382L940 384.8C920 387.7 880 393.3 840 404.2C800 415 760 431 720 436.3C680 441.7 640 436.3 600 420.2C560 404 520 377 480 368.8C440 360.7 400 371.3 360 383C320 394.7 280 407.3 240 408.3C200 409.3 160 398.7 120 403.2C80 407.7 40 427.3 20 437.2L0 447Z" fill="#abbbd5"></path><path d="M0 541L20 541C40 541 80 541 120 541C160 541 200 541 240 541C280 541 320 541 360 541C400 541 440 541 480 541C520 541 560 541 600 541C640 541 680 541 720 541C760 541 800 541 840 541C880 541 920 541 940 541L960 541L960 409L940 414.5C920 420 880 431 840 440C800 449 760 456 720 460.5C680 465 640 467 600 453.5C560 440 520 411 480 399.3C440 387.7 400 393.3 360 402.3C320 411.3 280 423.7 240 428.2C200 432.7 160 429.3 120 436.7C80 444 40 462 20 471L0 480Z" fill="#a4b5d2"></path></svg>